<svg xmlns="http://www.w3.org/2000/svg" width="1600" height="900" viewBox="0 0 1600 900" role="img" aria-labelledby="title desc"><title id="title">03 · PROVE THE SYSTEM CAN CHANGE AND FAIL SAFELY</title><desc id="desc">Release the complete decision bundle; monitor software, data, and decision health</desc><defs><marker id="arrow" viewBox="0 0 10 10" refX="9" refY="5" markerWidth="8" markerHeight="8" orient="auto-start-reverse"><path d="M 0 0 L 10 5 L 0 10 z" fill="context-stroke"/></marker><filter id="paper"><feTurbulence baseFrequency=".8" numOctaves="2" seed="7" type="fractalNoise" result="n"/><feBlend in="SourceGraphic" in2="n" mode="multiply"/></filter></defs><rect width="1600" height="900" fill="#fffdf6"/><path d="M 35 78 Q 780 71 1565 80" fill="none" stroke="#1f2937" stroke-width="2" opacity=".25"/><text x="45" y="50" fill="#1f2937" font-family="Virgil, Comic Sans MS, cursive" font-size="31" font-weight="700">03 · PROVE THE SYSTEM CAN CHANGE AND FAIL SAFELY</text><text x="45" y="82" fill="#53606f" font-family="Virgil, Comic Sans MS, cursive" font-size="18">Release the complete decision bundle; monitor software, data, and decision health</text><text x="55" y="120" fill="#1f2937" font-family="Virgil, Comic Sans MS, cursive" font-size="25" font-weight="600" text-anchor="start">RELEASE GATES</text>
<g><rect x="55" y="180" width="190" height="105" rx="13" fill="#dbeafe" stroke="#1f2937" stroke-width="3" /><path d="M 62 184 Q 150 177, 240 185" fill="none" stroke="#1f2937" stroke-width="1.4" opacity=".3"/><text x="150" y="227.5" fill="#1f2937" font-family="Virgil, Comic Sans MS, cursive" font-size="25" font-weight="700" text-anchor="middle">Offline<tspan x="150" dy="31" font-size="17" font-weight="400" fill="#53606f">temporal + slices</tspan></text></g>
<g><rect x="315" y="180" width="190" height="105" rx="13" fill="#dcfce7" stroke="#1f2937" stroke-width="3" /><path d="M 322 184 Q 410 177, 500 185" fill="none" stroke="#1f2937" stroke-width="1.4" opacity=".3"/><text x="410" y="227.5" fill="#1f2937" font-family="Virgil, Comic Sans MS, cursive" font-size="25" font-weight="700" text-anchor="middle">Replay<tspan x="410" dy="31" font-size="17" font-weight="400" fill="#53606f">schema + parity</tspan></text></g>
<g><rect x="575" y="180" width="190" height="105" rx="13" fill="#ede9fe" stroke="#1f2937" stroke-width="3" /><path d="M 582 184 Q 670 177, 760 185" fill="none" stroke="#1f2937" stroke-width="1.4" opacity=".3"/><text x="670" y="227.5" fill="#1f2937" font-family="Virgil, Comic Sans MS, cursive" font-size="25" font-weight="700" text-anchor="middle">Shadow<tspan x="670" dy="31" font-size="17" font-weight="400" fill="#53606f">latency + scores</tspan></text></g>
<g><rect x="835" y="180" width="190" height="105" rx="13" fill="#fef3c7" stroke="#1f2937" stroke-width="3" /><path d="M 842 184 Q 930 177, 1020 185" fill="none" stroke="#1f2937" stroke-width="1.4" opacity=".3"/><text x="930" y="227.5" fill="#1f2937" font-family="Virgil, Comic Sans MS, cursive" font-size="25" font-weight="700" text-anchor="middle">Canary<tspan x="930" dy="31" font-size="17" font-weight="400" fill="#53606f">product guardrails</tspan></text></g>
<g><rect x="1095" y="180" width="210" height="105" rx="13" fill="#fce7f3" stroke="#1f2937" stroke-width="3" /><path d="M 1102 184 Q 1200 177, 1300 185" fill="none" stroke="#1f2937" stroke-width="1.4" opacity=".3"/><text x="1200" y="227.5" fill="#1f2937" font-family="Virgil, Comic Sans MS, cursive" font-size="19" font-weight="700" text-anchor="middle">Promote / rollback<tspan x="1200" dy="31" font-size="17" font-weight="400" fill="#53606f">immutable alias</tspan></text></g>
<path d="M 245 232 Q 280 232 315 232" fill="none" stroke="#1f2937" stroke-width="3" stroke-linecap="round"  marker-end="url(#arrow)"/>
<path d="M 505 232 Q 540 232 575 232" fill="none" stroke="#1f2937" stroke-width="3" stroke-linecap="round"  marker-end="url(#arrow)"/>
<path d="M 765 232 Q 800 232 835 232" fill="none" stroke="#1f2937" stroke-width="3" stroke-linecap="round"  marker-end="url(#arrow)"/>
<path d="M 1025 232 Q 1060 232 1095 232" fill="none" stroke="#1f2937" stroke-width="3" stroke-linecap="round"  marker-end="url(#arrow)"/>
<g transform="rotate(-0.7 205 487.5)"><rect x="55" y="390" width="300" height="195" rx="4" fill="#dbeafe" stroke="#1f2937" stroke-width="2.5"/><path d="M 163 383 h84 v18 h-84z" fill="#ffffff" opacity=".62"/><text x="77" y="430" fill="#1f2937" font-family="Virgil, Comic Sans MS, cursive" font-size="22" font-weight="700">SOFTWARE HEALTH</text><text x="77" y="464" fill="#1f2937" font-family="Virgil, Comic Sans MS, cursive" font-size="19">p99 · errors · saturation</text><text x="77" y="494" fill="#1f2937" font-family="Virgil, Comic Sans MS, cursive" font-size="19">queue lag · cache hit rate</text><text x="77" y="524" fill="#1f2937" font-family="Virgil, Comic Sans MS, cursive" font-size="19">dependency deadline use</text></g>
<g transform="rotate(-0.7 540 487.5)"><rect x="390" y="390" width="300" height="195" rx="4" fill="#dcfce7" stroke="#1f2937" stroke-width="2.5"/><path d="M 498 383 h84 v18 h-84z" fill="#ffffff" opacity=".62"/><text x="412" y="430" fill="#1f2937" font-family="Virgil, Comic Sans MS, cursive" font-size="22" font-weight="700">DATA HEALTH</text><text x="412" y="464" fill="#1f2937" font-family="Virgil, Comic Sans MS, cursive" font-size="19">schema · nulls · range</text><text x="412" y="494" fill="#1f2937" font-family="Virgil, Comic Sans MS, cursive" font-size="19">freshness · join coverage</text><text x="412" y="524" fill="#1f2937" font-family="Virgil, Comic Sans MS, cursive" font-size="19">training / serving parity</text></g>
<g transform="rotate(-0.7 875 487.5)"><rect x="725" y="390" width="300" height="195" rx="4" fill="#ede9fe" stroke="#1f2937" stroke-width="2.5"/><path d="M 833 383 h84 v18 h-84z" fill="#ffffff" opacity=".62"/><text x="747" y="430" fill="#1f2937" font-family="Virgil, Comic Sans MS, cursive" font-size="22" font-weight="700">DECISION HEALTH</text><text x="747" y="464" fill="#1f2937" font-family="Virgil, Comic Sans MS, cursive" font-size="19">scores · calibration · slices</text><text x="747" y="494" fill="#1f2937" font-family="Virgil, Comic Sans MS, cursive" font-size="19">actions · delayed outcomes</text><text x="747" y="524" fill="#1f2937" font-family="Virgil, Comic Sans MS, cursive" font-size="19">business + safety guardrails</text></g>
<g transform="rotate(-0.7 1210 487.5)"><rect x="1060" y="390" width="300" height="195" rx="4" fill="#fce7f3" stroke="#1f2937" stroke-width="2.5"/><path d="M 1168 383 h84 v18 h-84z" fill="#ffffff" opacity=".62"/><text x="1082" y="430" fill="#1f2937" font-family="Virgil, Comic Sans MS, cursive" font-size="22" font-weight="700">SECURITY / PRIVACY</text><text x="1082" y="464" fill="#1f2937" font-family="Virgil, Comic Sans MS, cursive" font-size="19">least privilege · encryption</text><text x="1082" y="494" fill="#1f2937" font-family="Virgil, Comic Sans MS, cursive" font-size="19">poisoning + artifact integrity</text><text x="1082" y="524" fill="#1f2937" font-family="Virgil, Comic Sans MS, cursive" font-size="19">retention · residency · audit</text></g>
<text x="55" y="665" fill="#dc2626" font-family="Virgil, Comic Sans MS, cursive" font-size="23" font-weight="600" text-anchor="start">FALLBACK LADDER</text>
<g><rect x="55" y="715" width="225" height="85" rx="13" fill="#dcfce7" stroke="#1f2937" stroke-width="3" /><path d="M 62 719 Q 167.5 712, 275 720" fill="none" stroke="#1f2937" stroke-width="1.4" opacity=".3"/><text x="167.5" y="765.5" fill="#1f2937" font-family="Virgil, Comic Sans MS, cursive" font-size="25" font-weight="700" text-anchor="middle">Full decision</text></g>
<g><rect x="350" y="715" width="225" height="85" rx="13" fill="#dbeafe" stroke="#1f2937" stroke-width="3" /><path d="M 357 719 Q 462.5 712, 570 720" fill="none" stroke="#1f2937" stroke-width="1.4" opacity=".3"/><text x="462.5" y="765.5" fill="#1f2937" font-family="Virgil, Comic Sans MS, cursive" font-size="19" font-weight="700" text-anchor="middle">Skip optional data</text></g>
<g><rect x="645" y="715" width="225" height="85" rx="13" fill="#ede9fe" stroke="#1f2937" stroke-width="3" /><path d="M 652 719 Q 757.5 712, 865 720" fill="none" stroke="#1f2937" stroke-width="1.4" opacity=".3"/><text x="757.5" y="765.5" fill="#1f2937" font-family="Virgil, Comic Sans MS, cursive" font-size="21" font-weight="700" text-anchor="middle">Smaller model</text></g>
<g><rect x="940" y="715" width="225" height="85" rx="13" fill="#fef3c7" stroke="#1f2937" stroke-width="3" /><path d="M 947 719 Q 1052.5 712, 1160 720" fill="none" stroke="#1f2937" stroke-width="1.4" opacity=".3"/><text x="1052.5" y="765.5" fill="#1f2937" font-family="Virgil, Comic Sans MS, cursive" font-size="18" font-weight="700" text-anchor="middle">Known-safe baseline</text></g>
<g><rect x="1235" y="715" width="260" height="85" rx="13" fill="#fce7f3" stroke="#1f2937" stroke-width="3" /><path d="M 1242 719 Q 1365 712, 1490 720" fill="none" stroke="#1f2937" stroke-width="1.4" opacity=".3"/><text x="1365" y="765.5" fill="#1f2937" font-family="Virgil, Comic Sans MS, cursive" font-size="19" font-weight="700" text-anchor="middle">Stop / human action</text></g>
<path d="M 280 757 Q 315 757 350 757" fill="none" stroke="#1f2937" stroke-width="3" stroke-linecap="round"  marker-end="url(#arrow)"/>
<path d="M 575 757 Q 610 757 645 757" fill="none" stroke="#1f2937" stroke-width="3" stroke-linecap="round"  marker-end="url(#arrow)"/>
<path d="M 870 757 Q 905 757 940 757" fill="none" stroke="#1f2937" stroke-width="3" stroke-linecap="round"  marker-end="url(#arrow)"/>
<path d="M 1165 757 Q 1200 757 1235 757" fill="none" stroke="#1f2937" stroke-width="3" stroke-linecap="round"  marker-end="url(#arrow)"/>
<text x="1270" y="650" fill="#dc2626" font-family="Virgil, Comic Sans MS, cursive" font-size="19" font-weight="600" text-anchor="start">Recovery proof:</text>
<text x="1270" y="680" fill="#53606f" font-family="Virgil, Comic Sans MS, cursive" font-size="17" font-weight="600" text-anchor="middle">replay · checksum · parity · RTO</text><text x="1548" y="870" fill="#53606f" font-family="Virgil, Comic Sans MS, cursive" font-size="16" text-anchor="end">candidate whiteboard · editable board linked below</text></svg>