<svg xmlns="http://www.w3.org/2000/svg" width="1600" height="900" viewBox="0 0 1600 900" role="img" aria-labelledby="title desc"><title id="title">03 · V2 MAKES FAILURE AND GLOBAL EVIDENCE EXPLICIT</title><desc id="desc">Regional cells decide locally; compact risk evidence converges in the background</desc><defs><marker id="arrow" viewBox="0 0 10 10" refX="9" refY="5" markerWidth="8" markerHeight="8" orient="auto-start-reverse"><path d="M 0 0 L 10 5 L 0 10 z" fill="context-stroke"/></marker><filter id="paper"><feTurbulence baseFrequency=".8" numOctaves="2" seed="7" type="fractalNoise" result="n"/><feBlend in="SourceGraphic" in2="n" mode="multiply"/></filter></defs><rect width="1600" height="900" fill="#fffdf6"/><path d="M 35 78 Q 780 71 1565 80" fill="none" stroke="#1f2937" stroke-width="2" opacity=".25"/><text x="45" y="50" fill="#1f2937" font-family="Virgil, Comic Sans MS, cursive" font-size="31" font-weight="700">03 · V2 MAKES FAILURE AND GLOBAL EVIDENCE EXPLICIT</text><text x="45" y="82" fill="#53606f" font-family="Virgil, Comic Sans MS, cursive" font-size="18">Regional cells decide locally; compact risk evidence converges in the background</text><g><rect x="55" y="155" width="220" height="105" rx="13" fill="#dbeafe" stroke="#1f2937" stroke-width="3" /><path d="M 62 159 Q 165 152, 270 160" fill="none" stroke="#1f2937" stroke-width="1.4" opacity=".3"/><text x="165" y="202.5" fill="#1f2937" font-family="Virgil, Comic Sans MS, cursive" font-size="25" font-weight="700" text-anchor="middle">Global router<tspan x="165" dy="31" font-size="17" font-weight="400" fill="#53606f">tenant + home region</tspan></text></g>
<g><rect x="350" y="115" width="380" height="250" rx="13" fill="#dcfce7" stroke="#1f2937" stroke-width="3" /><path d="M 357 119 Q 540 112, 725 120" fill="none" stroke="#1f2937" stroke-width="1.4" opacity=".3"/><text x="540" y="235" fill="#1f2937" font-family="Virgil, Comic Sans MS, cursive" font-size="25" font-weight="700" text-anchor="middle">Regional risk cell · NA<tspan x="540" dy="31" font-size="17" font-weight="400" fill="#53606f">gateway + local features</tspan><tspan x="540" dy="25" font-size="17" font-weight="400" fill="#53606f">model + policy cache</tspan><tspan x="540" dy="25" font-size="17" font-weight="400" fill="#53606f">decision ledger</tspan><tspan x="540" dy="25" font-size="17" font-weight="400" fill="#53606f">last-known-good bundle</tspan></text></g>
<g><rect x="805" y="115" width="380" height="250" rx="13" fill="#dcfce7" stroke="#1f2937" stroke-width="3" /><path d="M 812 119 Q 995 112, 1180 120" fill="none" stroke="#1f2937" stroke-width="1.4" opacity=".3"/><text x="995" y="235" fill="#1f2937" font-family="Virgil, Comic Sans MS, cursive" font-size="25" font-weight="700" text-anchor="middle">Regional risk cell · EU<tspan x="995" dy="31" font-size="17" font-weight="400" fill="#53606f">gateway + local features</tspan><tspan x="995" dy="25" font-size="17" font-weight="400" fill="#53606f">model + policy cache</tspan><tspan x="995" dy="25" font-size="17" font-weight="400" fill="#53606f">decision ledger</tspan><tspan x="995" dy="25" font-size="17" font-weight="400" fill="#53606f">last-known-good bundle</tspan></text></g>
<path d="M 275 207 Q 312.5 207 350 207" fill="none" stroke="#1f2937" stroke-width="3" stroke-linecap="round"  marker-end="url(#arrow)"/>
<path d="M 275 207 Q 540 207 805 207" fill="none" stroke="#1f2937" stroke-width="3" stroke-linecap="round"  marker-end="url(#arrow)"/>
<path d="M 730 300 Q 767.5 300 805 300" fill="none" stroke="#2563eb" stroke-width="3" stroke-linecap="round" stroke-dasharray="11 9" marker-end="url(#arrow)"/><text x="767.5" y="288" fill="#2563eb" font-family="Virgil, Comic Sans MS, cursive" font-size="17" text-anchor="middle">compact risk signals</text>
<path d="M 805 335 Q 767.5 335 730 335" fill="none" stroke="#2563eb" stroke-width="3" stroke-linecap="round" stroke-dasharray="11 9" marker-end="url(#arrow)"/>
<path d="M 765 105 C 750 112, 780 373, 765 380" fill="none" stroke="#dc2626" stroke-width="3" stroke-linecap="round"/>
<text x="720" y="405" fill="#dc2626" font-family="Virgil, Comic Sans MS, cursive" font-size="20" font-weight="600" text-anchor="start">WAN is not on checkout</text>
<g transform="rotate(-0.7 1405 240)"><rect x="1260" y="115" width="290" height="250" rx="4" fill="#fef3c7" stroke="#1f2937" stroke-width="2.5"/><path d="M 1363 108 h84 v18 h-84z" fill="#ffffff" opacity=".62"/><text x="1282" y="155" fill="#1f2937" font-family="Virgil, Comic Sans MS, cursive" font-size="22" font-weight="700">DEGRADED POLICY</text><text x="1282" y="189" fill="#1f2937" font-family="Virgil, Comic Sans MS, cursive" font-size="19">Features stale → challenge</text><text x="1282" y="219" fill="#1f2937" font-family="Virgil, Comic Sans MS, cursive" font-size="19">Model down → rules + baseline</text><text x="1282" y="249" fill="#1f2937" font-family="Virgil, Comic Sans MS, cursive" font-size="19">Review full → cost-aware action</text><text x="1282" y="279" fill="#1f2937" font-family="Virgil, Comic Sans MS, cursive" font-size="19">Region lost → healthy cell</text><text x="1282" y="309" fill="#1f2937" font-family="Virgil, Comic Sans MS, cursive" font-size="19">Preserve data residency</text></g>
<text x="55" y="480" fill="#2563eb" font-family="Virgil, Comic Sans MS, cursive" font-size="23" font-weight="600" text-anchor="start">GLOBAL CONTROL + INVESTIGATION (NOT ON THE DEADLINE)</text>
<g><rect x="55" y="555" width="215" height="105" rx="13" fill="#dbeafe" stroke="#1f2937" stroke-width="3" /><path d="M 62 559 Q 162.5 552, 265 560" fill="none" stroke="#1f2937" stroke-width="1.4" opacity=".3"/><text x="162.5" y="602.5" fill="#1f2937" font-family="Virgil, Comic Sans MS, cursive" font-size="25" font-weight="700" text-anchor="middle">Event lake<tspan x="162.5" dy="31" font-size="17" font-weight="400" fill="#53606f">jurisdiction-aware</tspan></text></g>
<g><rect x="345" y="555" width="215" height="105" rx="13" fill="#fce7f3" stroke="#1f2937" stroke-width="3" /><path d="M 352 559 Q 452.5 552, 555 560" fill="none" stroke="#1f2937" stroke-width="1.4" opacity=".3"/><text x="452.5" y="602.5" fill="#1f2937" font-family="Virgil, Comic Sans MS, cursive" font-size="25" font-weight="700" text-anchor="middle">Graph + cases<tspan x="452.5" dy="31" font-size="17" font-weight="400" fill="#53606f">rings + analyst evidence</tspan></text></g>
<g><rect x="635" y="555" width="215" height="105" rx="13" fill="#ede9fe" stroke="#1f2937" stroke-width="3" /><path d="M 642 559 Q 742.5 552, 845 560" fill="none" stroke="#1f2937" stroke-width="1.4" opacity=".3"/><text x="742.5" y="602.5" fill="#1f2937" font-family="Virgil, Comic Sans MS, cursive" font-size="25" font-weight="700" text-anchor="middle">Train + replay<tspan x="742.5" dy="31" font-size="17" font-weight="400" fill="#53606f">chronological</tspan></text></g>
<g><rect x="925" y="555" width="215" height="105" rx="13" fill="#fef3c7" stroke="#1f2937" stroke-width="3" /><path d="M 932 559 Q 1032.5 552, 1135 560" fill="none" stroke="#1f2937" stroke-width="1.4" opacity=".3"/><text x="1032.5" y="602.5" fill="#1f2937" font-family="Virgil, Comic Sans MS, cursive" font-size="25" font-weight="700" text-anchor="middle">Registry<tspan x="1032.5" dy="31" font-size="17" font-weight="400" fill="#53606f">model + policy + features</tspan></text></g>
<g><rect x="1215" y="555" width="215" height="105" rx="13" fill="#dcfce7" stroke="#1f2937" stroke-width="3" /><path d="M 1222 559 Q 1322.5 552, 1425 560" fill="none" stroke="#1f2937" stroke-width="1.4" opacity=".3"/><text x="1322.5" y="602.5" fill="#1f2937" font-family="Virgil, Comic Sans MS, cursive" font-size="25" font-weight="700" text-anchor="middle">Rollout<tspan x="1322.5" dy="31" font-size="17" font-weight="400" fill="#53606f">shadow · canary · rollback</tspan></text></g>
<path d="M 270 607 Q 307.5 607 345 607" fill="none" stroke="#2563eb" stroke-width="3" stroke-linecap="round" stroke-dasharray="11 9" marker-end="url(#arrow)"/>
<path d="M 560 607 Q 597.5 607 635 607" fill="none" stroke="#2563eb" stroke-width="3" stroke-linecap="round" stroke-dasharray="11 9" marker-end="url(#arrow)"/>
<path d="M 850 607 Q 887.5 607 925 607" fill="none" stroke="#2563eb" stroke-width="3" stroke-linecap="round" stroke-dasharray="11 9" marker-end="url(#arrow)"/>
<path d="M 1140 607 Q 1177.5 607 1215 607" fill="none" stroke="#2563eb" stroke-width="3" stroke-linecap="round" stroke-dasharray="11 9" marker-end="url(#arrow)"/>
<path d="M 1322 555 Q 1158.5 460 995 365" fill="none" stroke="#2563eb" stroke-width="3" stroke-linecap="round" stroke-dasharray="11 9" marker-end="url(#arrow)"/><text x="1158.5" y="448" fill="#2563eb" font-family="Virgil, Comic Sans MS, cursive" font-size="17" text-anchor="middle">immutable bundle</text>
<g transform="rotate(-0.7 265 777.5)"><rect x="55" y="720" width="420" height="115" rx="4" fill="#fce7f3" stroke="#1f2937" stroke-width="2.5"/><path d="M 223 713 h84 v18 h-84z" fill="#ffffff" opacity=".62"/><text x="77" y="760" fill="#1f2937" font-family="Virgil, Comic Sans MS, cursive" font-size="22" font-weight="700">STRONG CONSISTENCY — TINY ONLY</text><text x="77" y="794" fill="#1f2937" font-family="Virgil, Comic Sans MS, cursive" font-size="19">Confirmed bad token: maybe. Ordinary velocity: no.</text></g>
<g transform="rotate(-0.7 750 777.5)"><rect x="540" y="720" width="420" height="115" rx="4" fill="#dbeafe" stroke="#1f2937" stroke-width="2.5"/><path d="M 708 713 h84 v18 h-84z" fill="#ffffff" opacity=".62"/><text x="562" y="760" fill="#1f2937" font-family="Virgil, Comic Sans MS, cursive" font-size="22" font-weight="700">FIRST 10× BOTTLENECK</text><text x="562" y="794" fill="#1f2937" font-family="Virgil, Comic Sans MS, cursive" font-size="19">Hot keys → stream partitions → model replicas.</text></g>
<g transform="rotate(-0.7 1287.5 777.5)"><rect x="1025" y="720" width="525" height="115" rx="4" fill="#dcfce7" stroke="#1f2937" stroke-width="2.5"/><path d="M 1245.5 713 h84 v18 h-84z" fill="#ffffff" opacity=".62"/><text x="1047" y="760" fill="#1f2937" font-family="Virgil, Comic Sans MS, cursive" font-size="22" font-weight="700">RECOVERY PROOF</text><text x="1047" y="794" fill="#1f2937" font-family="Virgil, Comic Sans MS, cursive" font-size="19">Evacuate · replay · checksum · residency.</text></g><text x="1548" y="870" fill="#53606f" font-family="Virgil, Comic Sans MS, cursive" font-size="16" text-anchor="end">candidate whiteboard · editable board linked below</text></svg>